<svg xmlns="http://www.w3.org/2000/svg" viewBox="-32.920 -32.920 1562.984 439.040" width="1563.0" height="439.0" role="img" aria-label="Structured Liquidity">
<g transform="translate(0 -9.876) scale(3.48952)" fill="none" stroke="#a388ee" stroke-linejoin="round" stroke-linecap="round"><path d="M50 36.56 L61.64 43.28 L61.64 56.72 L50 63.44 L38.36 56.72 L38.36 43.28 Z" fill="#a388ee" fill-opacity="0.16" stroke="none"/><path d="M50 18 L50 36.56 M77.71 34 L61.64 43.28 M77.71 66 L61.64 56.72 M50 82 L50 63.44 M22.29 66 L38.36 56.72 M22.29 34 L38.36 43.28 M50 50 L50 82 M50 50 L22.29 34 M50 50 L77.71 34" stroke-width="3"/><path d="M50 36.56 L61.64 43.28 L61.64 56.72 L50 63.44 L38.36 56.72 L38.36 43.28 Z" stroke-width="4"/><path d="M50 18 L77.71 34 L77.71 66 L50 82 L22.29 66 L22.29 34 Z" stroke-width="5"/></g>
<path d="M506.4872617187501 139.60000000000002Q493.5655820312501 139.60000000000002 482.1330136718751 137.3173828125Q470.7004453125001 135.034765625 461.9939511718751 129.84345703125Q453.2874570312501 124.65214843750002 448.3070371093751 116.10000000000002Q443.3266171875001 107.54785156250001 443.3266171875001 95.11748046875002Q443.3266171875001 94.35224609375001 443.3722714843751 93.42397460937501Q443.4179257812501 92.495703125 443.5266171875001 91.78701171875002H478.2045468750001Q478.0958554687501 92.40439453125 478.0502011718751 93.28701171875001Q478.0045468750001 94.16962890625001 478.0045468750001 94.8609375Q478.0045468750001 101.13486328125 481.2610898437501 105.01967773437501Q484.5176328125001 108.90449218750001 490.5763730468751 110.64365234375Q496.6351132812501 112.38281250000001 504.5873593750001 112.38281250000001Q508.9048398437501 112.38281250000001 512.7005429687501 111.963232421875Q516.4962460937501 111.54365234375001 519.5440976562501 110.58710937500001Q522.5919492187501 109.63056640625001 524.8289121093751 108.12836914062501Q527.0658750000001 106.62617187500001 528.220220703125 104.51528320312501Q529.3745664062501 102.40439453125 529.3745664062501 99.62177734375001Q529.3745664062501 94.90869140625001 525.8832578125001 91.97822265625001Q522.3919492187501 89.04775390625002 516.4549863281252 86.99121093750001Q510.5180234375001 84.93466796875 503.0897519531251 83.21508789062501Q495.6614804687501 81.49550781250002 487.7245175781251 79.45854492187502Q479.7875546875001 77.42158203125001 472.3592832031251 74.37592773437501Q464.9310117187501 71.33027343750001 458.9940488281251 66.76723632812502Q453.0570859375001 62.20419921875002 449.56577734375014 55.28681640625002Q446.0744687500001 48.36943359375002 446.0744687500001 38.64335937500002Q446.0744687500001 27.739062500000017 450.6635800781251 19.88691406250001Q455.2526914062501 12.034765625000006 463.4048398437501 7.063037109375003Q471.5569882812501 2.09130859375 482.15479101562505 -0.2630371093749915Q492.7525937500001 -2.617382812499983 504.7699765625001 -2.617382812499983Q516.5308164062501 -2.617382812499983 526.8829648437501 -0.20869140624998295Q537.23511328125 2.200000000000017 545.1785703125001 7.263037109375013Q553.1220273437501 12.326074218750009 557.6481015625002 20.09780273437501Q562.1741757812501 27.86953125000001 562.2828671875001 38.59560546875001V40.995605468750014H528.0049375000001V39.64775390625002Q528.0049375000001 35.04335937500001 525.4288144531251 31.478125000000013Q522.8526914062501 27.912890625000017 517.8569882812501 25.821582031250017Q512.8612851562501 23.730273437500017 505.5481992187501 23.730273437500017Q498.1785703125001 23.730273437500017 493.0285214843751 25.158544921875013Q487.8784726562501 26.58681640625001 485.2393125000001 29.23466796875001Q482.6001523437501 31.88251953125001 482.6001523437501 35.37822265625002Q482.6001523437501 39.726074218750014 486.0914609375001 42.58261718750001Q489.5827695312501 45.43916015625001 495.5197324218751 47.40439453125001Q501.4566953125001 49.369628906250014 508.88496679687506 51.04355468750001Q516.31323828125 52.71748046875001 524.250201171875 54.691406250000014Q532.1871640625001 56.66533203125002 539.615435546875 59.556640625000014Q547.04370703125 62.44794921875001 552.980669921875 66.94794921875001Q558.9176328125001 71.44794921875001 562.40894140625 78.04794921875Q565.9002500000001 84.64794921875001 565.9002500000001 94.06533203125002Q565.9002500000001 110.33486328125002 558.1828671875 120.38701171875002Q550.4654843750001 130.43916015625 537.0394101562501 135.01958007812502Q523.6133359375001 139.60000000000002 506.4872617187501 139.60000000000002Z M621.4393125 139.60000000000002Q611.0958554687501 139.60000000000002 604.028521484375 136.46083984375002Q596.9611875 133.32167968750002 593.4112363281251 127.16733398437502Q589.8612851562501 121.01298828125002 589.8612851562501 112.22177734375002V55.58681640625001H576.0656796875V31.78261718750001H591.0047421875L597.68726171875 0.9696289062500227H622.6305234375001V31.78261718750001H643.11304296875V55.58681640625001H622.6305234375001V104.27851562500001Q622.6305234375001 109.89150390625002 624.8305234375 112.84365234375002Q627.0305234375 115.79580078125002 632.7348203125001 115.79580078125002H643.11304296875V136.18261718750003Q640.4608945312501 137.09130859375003 636.5826718750001 137.90000000000003Q632.70444921875 138.70869140625 628.6892636718751 139.15434570312502Q624.674078125 139.60000000000002 621.4393125 139.60000000000002Z M659.4005429687501 137.20000000000002V31.78261718750001H686.4307187500001L688.7567929687501 48.05654296875001H690.1567929687501Q692.4828671875001 42.51308593750001 696.0350156250001 38.26743164062501Q699.5871640625 34.02177734375002 704.6219296875001 31.647851562500016Q709.6566953125001 29.273925781250014 715.9306210937501 29.273925781250014Q719.5653867187501 29.273925781250014 722.537115234375 29.98261718750001Q725.5088437500001 30.69130859375001 726.9088437500001 31.400000000000006V60.05195312500001H716.5741757812501Q710.265484375 60.05195312500001 705.628521484375 61.751953125000014Q700.99155859375 63.45195312500002 698.0176328125001 66.88891601562501Q695.04370703125 70.32587890625001 693.6067441406251 75.34545898437501Q692.16978125 80.36503906250002 692.16978125 86.91289062500002V137.20000000000002Z M773.8309140625 139.60000000000002Q756.6744687500001 139.60000000000002 747.4461972656251 130.15874023437502Q738.2179257812501 120.71748046875001 738.2179257812501 101.36962890625001V31.78261718750001H770.9871640625V96.75224609375002Q770.9871640625 101.04794921875 772.06978125 104.25883789062502Q773.1523984375001 107.46972656250001 775.163287109375 109.60668945312501Q777.17417578125 111.74365234375001 780.23071875 112.79799804687502Q783.2872617187501 113.85234375000002 787.03511328125 113.85234375000002Q792.76558203125 113.85234375000002 797.19605078125 111.14145507812502Q801.6265195312501 108.43056640625002 804.1830625 103.76313476562501Q806.73960546875 99.09570312500001 806.73960546875 93.41738281250002V31.78261718750001H839.5088437500001V137.20000000000002H812.5699765625001L810.5699765625001 122.11308593750002H809.1699765625001Q805.46128515625 127.45654296875001 800.017828125 131.42827148437502Q794.5743710937501 135.4 787.8939511718751 137.5Q781.2135312500001 139.60000000000002 773.8309140625 139.60000000000002Z M912.26987890625 139.60000000000002Q895.00034765625 139.60000000000002 882.79605078125 133.59130859375003Q870.59175390625 127.58261718750002 864.10483984375 115.32827148437502Q857.61792578125 103.07392578125001 857.61792578125 84.49130859375Q857.61792578125 65.70869140625001 864.150494140625 53.500000000000014Q870.6830625 41.29130859375002 882.887359375 35.282617187500016Q895.09165625 29.273925781250014 912.26987890625 29.273925781250014Q923.63071875 29.273925781250014 933.135015625 31.873925781250016Q942.6393125 34.47392578125002 949.680572265625 39.828271484375016Q956.72183203125 45.182617187500014 960.537017578125 53.417382812500016Q964.352203125 61.65214843750002 964.352203125 72.92167968750002H932.05249609375Q932.05249609375 66.17382812500001 929.7981503906251 61.808593750000014Q927.5438046875 57.443359375000014 923.098150390625 55.269433593750016Q918.65249609375 53.09550781250002 912.08726171875 53.09550781250002Q904.53941015625 53.09550781250002 899.828521484375 56.29770507812501Q895.1176328125 59.49990234375001 892.889361328125 65.69560546875002Q890.66108984375 71.89130859375001 890.66108984375 80.90009765625001V88.28251953125002Q890.66108984375 97.20000000000002 892.94370703125 103.38701171875002Q895.22632421875 109.57402343750002 900.137212890625 112.73056640625002Q905.0481015625 115.88710937500002 912.9785703125 115.88710937500002Q919.66987890625 115.88710937500002 924.16987890625 113.71318359375002Q928.66987890625 111.53925781250001 931.06987890625 107.02836914062502Q933.46987890625 102.51748046875002 933.46987890625 95.84355468750002H964.352203125Q964.352203125 106.83916015625002 960.537017578125 115.12827148437502Q956.72183203125 123.41738281250002 949.7262265625 128.8173828125Q942.73062109375 134.2173828125 933.180669921875 136.90869140625Q923.63071875 139.60000000000002 912.26987890625 139.60000000000002Z M1020.0393124999999 139.60000000000002Q1009.69585546875 139.60000000000002 1002.6285214843749 136.46083984375002Q995.5611875 133.32167968750002 992.011236328125 127.16733398437502Q988.46128515625 121.01298828125002 988.46128515625 112.22177734375002V55.58681640625001H974.6656796875V31.78261718750001H989.6047421874999L996.28726171875 0.9696289062500227H1021.2305234375V31.78261718750001H1041.71304296875V55.58681640625001H1021.2305234375V104.27851562500001Q1021.2305234375 109.89150390625002 1023.4305234374999 112.84365234375002Q1025.6305234375 115.79580078125002 1031.3348203125 115.79580078125002H1041.71304296875V136.18261718750003Q1039.06089453125 137.09130859375003 1035.1826718749999 137.90000000000003Q1031.30444921875 138.70869140625 1027.289263671875 139.15434570312502Q1023.274078125 139.60000000000002 1020.0393124999999 139.60000000000002Z M1093.0309140625 139.60000000000002Q1075.8744687499998 139.60000000000002 1066.6461972656248 130.15874023437502Q1057.4179257812498 120.71748046875001 1057.4179257812498 101.36962890625001V31.78261718750001H1090.1871640625V96.75224609375002Q1090.1871640625 101.04794921875 1091.26978125 104.25883789062502Q1092.3523984375 107.46972656250001 1094.363287109375 109.60668945312501Q1096.37417578125 111.74365234375001 1099.4307187499999 112.79799804687502Q1102.4872617187498 113.85234375000002 1106.2351132812498 113.85234375000002Q1111.9655820312498 113.85234375000002 1116.3960507812499 111.14145507812502Q1120.82651953125 108.43056640625002 1123.3830625 103.76313476562501Q1125.93960546875 99.09570312500001 1125.93960546875 93.41738281250002V31.78261718750001H1158.70884375V137.20000000000002H1131.7699765624998L1129.7699765624998 122.11308593750002H1128.3699765625Q1124.66128515625 127.45654296875001 1119.2178281249999 131.42827148437502Q1113.7743710937498 135.4 1107.0939511718748 137.5Q1100.4135312499998 139.60000000000002 1093.0309140625 139.60000000000002Z M1181.8005429687498 137.20000000000002V31.78261718750001H1208.8307187499997L1211.1567929687499 48.05654296875001H1212.5567929687497Q1214.8828671874999 42.51308593750001 1218.4350156249998 38.26743164062501Q1221.9871640625 34.02177734375002 1227.0219296874998 31.647851562500016Q1232.0566953124999 29.273925781250014 1238.3306210937499 29.273925781250014Q1241.9653867187499 29.273925781250014 1244.9371152343747 29.98261718750001Q1247.9088437499997 30.69130859375001 1249.3088437499998 31.400000000000006V60.05195312500001H1238.9741757812499Q1232.6654843749998 60.05195312500001 1228.0285214843748 61.751953125000014Q1223.3915585937498 63.45195312500002 1220.4176328125 66.88891601562501Q1217.44370703125 70.32587890625001 1216.006744140625 75.34545898437501Q1214.5697812499998 80.36503906250002 1214.5697812499998 86.91289062500002V137.20000000000002Z M1312.8133359375 139.60000000000002Q1294.81773046875 139.60000000000002 1282.150396484375 133.70000000000002Q1269.4830625 127.80000000000001 1262.850494140625 115.60000000000001Q1256.21792578125 103.4 1256.21792578125 84.49130859375Q1256.21792578125 65.70869140625001 1262.7961484375 53.55434570312501Q1269.37437109375 41.400000000000006 1281.7156308593749 35.39130859375001Q1294.0568906249998 29.382617187500017 1311.5090390624998 29.382617187500017Q1328.7741757812498 29.382617187500017 1340.7045468749998 35.191308593750016Q1352.63491796875 41.000000000000014 1358.813140625 53.01738281250002Q1364.99136328125 65.03476562500002 1364.99136328125 83.94345703125V90.92607421875002H1289.26108984375Q1289.44370703125 99.3130859375 1291.771978515625 105.19790039062501Q1294.10025 111.08271484375001 1299.1654843749998 114.05664062500001Q1304.2307187499998 117.03056640625002 1312.46987890625 117.03056640625002Q1317.5046445312498 117.03056640625002 1321.3416074218749 115.83056640625001Q1325.1785703125 114.63056640625001 1327.7981503906249 112.34794921875002Q1330.4177304687498 110.06533203125002 1331.7373105468748 106.80878906250001Q1333.0568906249998 103.55224609375001 1333.0568906249998 99.53046875000001H1364.99136328125Q1364.99136328125 109.20439453125002 1361.437017578125 116.71308593750001Q1357.882671875 124.22177734375002 1351.0935605468749 129.29350585937502Q1344.3044492187498 134.36523437500003 1334.6544980468748 136.9826171875Q1325.004546875 139.60000000000002 1312.8133359375 139.60000000000002ZM1289.5523984375 72.85654296875002H1331.54819921875Q1331.54819921875 67.56083984375002 1330.2112363281249 63.66733398437501Q1328.8742734374998 59.77382812500001 1326.3916562499999 57.15424804687501Q1323.9090390625 54.534667968750014 1320.380767578125 53.28901367187501Q1316.85249609375 52.04335937500001 1312.3785703125 52.04335937500001Q1305.2307187499998 52.04335937500001 1300.419830078125 54.42597656250001Q1295.6089414062499 56.808593750000014 1293.0263242187498 61.39340820312501Q1290.44370703125 65.97822265625001 1289.5523984375 72.85654296875002Z M1421.3396054687498 139.60000000000002Q1407.8874570312498 139.60000000000002 1398.1613828124998 133.63696289062503Q1388.4353085937498 127.67392578125002 1383.2266171874999 115.41958007812502Q1378.01792578125 103.16523437500001 1378.01792578125 84.29130859375002Q1378.01792578125 65.61738281250001 1383.2722714843749 53.46303710937501Q1388.5266171874998 41.308691406250006 1398.1613828124998 35.34565429687501Q1407.7961484374998 29.382617187500017 1420.7004453124998 29.382617187500017Q1427.0309140625 29.382617187500017 1432.650494140625 30.819580078125014Q1438.2700742187499 32.25654296875001 1442.8157285156249 35.230468750000014Q1447.3613828124999 38.20439453125002 1450.4526914062499 42.678320312500006H1451.7613828125V-7.617382812499983H1484.53062109375V137.20000000000002H1457.7004453124998L1455.2656796874999 122.65654296875002H1453.8656796874998Q1448.5396054687499 131.29130859375002 1440.0939511718748 135.44565429687503Q1431.648296875 139.60000000000002 1421.3396054687498 139.60000000000002ZM1431.54819921875 114.03496093750002Q1438.75259375 114.03496093750002 1443.246099609375 110.66972656250002Q1447.73960546875 107.30449218750002 1449.8591855468749 101.24575195312502Q1451.9787656249998 95.18701171875001 1451.9787656249998 87.06953125000001V82.29570312500002Q1451.9787656249998 76.23476562500002 1450.7961484374998 71.17602539062503Q1449.6135312499998 66.11728515625002 1447.1482968749997 62.51508789062502Q1444.6830624999998 58.91289062500002 1440.7808652343747 56.93027343750001Q1436.8786679687498 54.94765625000001 1431.54819921875 54.94765625000001Q1424.0698789062499 54.94765625000001 1419.585064453125 57.95854492187501Q1415.10025 60.96943359375001 1413.12632421875 66.802099609375Q1411.1523984374999 72.63476562500001 1411.1523984374999 81.11748046875002V88.15644531250001Q1411.1523984374999 96.54785156250001 1413.12632421875 102.33486328125002Q1415.10025 108.12187500000002 1419.585064453125 111.07841796875002Q1424.0698789062499 114.03496093750002 1431.54819921875 114.03496093750002Z" fill="#171320"/>
<path d="M449.5266171875001 329.20000000000005V191.78261718750005H485.4175351562501V299.75244140625006H555.1957578125001V329.20000000000005Z M569.6005429687501 209.64775390625005V184.38261718750005H602.3697812500001V209.64775390625005ZM569.6005429687501 329.20000000000005V223.78261718750002H602.3697812500001V329.20000000000005Z M693.9613828125001 366.40859375V318.41298828125H692.6526914062501Q689.2353085937501 322.66953125000003 684.7440000000001 325.64345703125Q680.2526914062502 328.61738281250007 674.7418027343751 330.10869140625005Q669.2309140625001 331.6 662.9004453125001 331.6Q649.9961484375001 331.6 640.3613828125001 325.636962890625Q630.7266171875001 319.67392578125003 625.4722714843751 307.47392578125005Q620.2179257812502 295.27392578125006 620.2179257812502 276.69130859375Q620.2179257812502 257.81738281250006 625.4266171875001 245.56303710937505Q630.6353085937501 233.30869140625003 640.3613828125001 227.34565429687504Q650.0874570312501 221.38261718750005 663.5396054687501 221.38261718750005Q673.7396054687501 221.38261718750005 682.2396054687501 225.64565429687505Q690.7396054687501 229.90869140625006 695.7396054687501 238.32607421875002H697.1396054687501L699.9004453125001 223.78261718750002H726.7306210937502V366.40859375ZM673.7481992187502 306.03496093750005Q679.1699765625001 306.03496093750005 683.0721738281252 304.05234375000003Q686.9743710937502 302.0697265625 689.3939511718752 298.467529296875Q691.8135312500001 294.86533203125003 692.9961484375001 289.85224609375007Q694.1787656250001 284.83916015625005 694.1787656250001 278.77822265625V274.09570312500006Q694.1787656250001 265.88691406250007 692.0591855468751 259.78251953125005Q689.9396054687502 253.67812500000002 685.4460996093751 250.31289062500002Q680.9525937500001 246.94765625000002 673.7481992187502 246.94765625000002Q666.2698789062501 246.94765625000002 661.7850644531252 249.90419921875002Q657.3002500000001 252.86074218750002 655.3263242187502 258.69340820312505Q653.3523984375001 264.52607421875007 653.3523984375001 273.00878906250006V280.04775390625Q653.3523984375001 288.43916015625007 655.3263242187502 294.2261718750001Q657.3002500000001 300.01318359375006 661.7850644531252 303.024072265625Q666.2698789062501 306.03496093750005 673.7481992187502 306.03496093750005Z M784.8309140625001 331.6Q767.6744687500002 331.6 758.4461972656252 322.15874023437505Q749.2179257812502 312.71748046875007 749.2179257812502 293.36962890625006V223.78261718750002H781.9871640625001V288.75224609375005Q781.9871640625001 293.04794921875003 783.0697812500002 296.25883789062505Q784.1523984375002 299.46972656250006 786.1632871093752 301.60668945312506Q788.1741757812501 303.74365234375006 791.2307187500002 304.797998046875Q794.2872617187502 305.85234375000005 798.0351132812501 305.85234375000005Q803.7655820312501 305.85234375000005 808.1960507812502 303.14145507812503Q812.6265195312502 300.43056640625 815.1830625000002 295.76313476562507Q817.7396054687501 291.09570312500006 817.7396054687501 285.4173828125V223.78261718750002H850.5088437500002V329.20000000000005H823.5699765625002L821.5699765625002 314.11308593750005H820.1699765625002Q816.4612851562501 319.45654296875006 811.0178281250002 323.42827148437505Q805.5743710937502 327.40000000000003 798.8939511718752 329.5Q792.2135312500002 331.6 784.8309140625001 331.6Z M873.6005429687502 209.64775390625005V184.38261718750005H906.3697812500002V209.64775390625005ZM873.6005429687502 329.20000000000005V223.78261718750002H906.3697812500002V329.20000000000005Z M967.5396054687502 331.6Q954.0874570312502 331.6 944.3613828125002 325.636962890625Q934.6353085937502 319.67392578125003 929.4266171875003 307.419580078125Q924.2179257812503 295.16523437500007 924.2179257812503 276.29130859375005Q924.2179257812503 257.61738281250007 929.4722714843753 245.46303710937505Q934.7266171875002 233.30869140625003 944.3613828125002 227.34565429687504Q953.9961484375002 221.38261718750005 966.9004453125002 221.38261718750005Q973.2309140625002 221.38261718750005 978.8504941406252 222.81958007812506Q984.4700742187503 224.25654296875004 989.0157285156253 227.23046875000006Q993.5613828125003 230.20439453125005 996.6526914062503 234.67832031250003H997.9613828125002V184.38261718750005H1030.7306210937502V329.20000000000005H1003.9004453125003L1001.4656796875003 314.65654296875005H1000.0656796875003Q994.7396054687503 323.29130859375005 986.2939511718753 327.44565429687503Q977.8482968750003 331.6 967.5396054687502 331.6ZM977.7481992187503 306.03496093750005Q984.9525937500002 306.03496093750005 989.4460996093753 302.66972656250005Q993.9396054687503 299.30449218750005 996.0591855468754 293.245751953125Q998.1787656250003 287.18701171875006 998.1787656250003 279.06953125000007V274.29570312500005Q998.1787656250003 268.234765625 996.9961484375003 263.176025390625Q995.8135312500003 258.11728515625003 993.3482968750003 254.51508789062504Q990.8830625000003 250.91289062500005 986.9808652343752 248.93027343750003Q983.0786679687502 246.94765625000002 977.7481992187503 246.94765625000002Q970.2698789062503 246.94765625000002 965.7850644531252 249.95854492187505Q961.3002500000002 252.96943359375004 959.3263242187502 258.80209960937503Q957.3523984375003 264.63476562500006 957.3523984375003 273.11748046875005V280.15644531250007Q957.3523984375003 288.54785156250006 959.3263242187502 294.33486328125Q961.3002500000002 300.12187500000005 965.7850644531252 303.07841796875005Q970.2698789062503 306.03496093750005 977.7481992187503 306.03496093750005Z M1053.8005429687503 209.64775390625005V184.38261718750005H1086.5697812500002V209.64775390625005ZM1053.8005429687503 329.20000000000005V223.78261718750002H1086.5697812500002V329.20000000000005Z M1146.4393125000001 331.6Q1136.0958554687502 331.6 1129.0285214843752 328.46083984375Q1121.9611875000003 325.3216796875 1118.4112363281251 319.16733398437503Q1114.8612851562502 313.01298828125005 1114.8612851562502 304.22177734375003V247.58681640625002H1101.0656796875003V223.78261718750002H1116.0047421875001L1122.6872617187503 192.96962890625005H1147.6305234375002V223.78261718750002H1168.1130429687503V247.58681640625002H1147.6305234375002V296.27851562500007Q1147.6305234375002 301.89150390625 1149.8305234375002 304.84365234375Q1152.0305234375003 307.79580078125 1157.7348203125002 307.79580078125H1168.1130429687503V328.18261718750006Q1165.4608945312502 329.09130859375006 1161.5826718750002 329.9000000000001Q1157.7044492187501 330.70869140625007 1153.6892636718753 331.15434570312505Q1149.6740781250003 331.6 1146.4393125000001 331.6Z M1201.2265195312502 368.64335937500005Q1193.9352109375002 368.64335937500005 1188.5743710937502 367.543359375Q1183.2135312500002 366.44335937500006 1180.8744687500002 365.5912109375V344.71308593750007H1194.6830625000002Q1200.4047421875002 344.71308593750007 1204.333013671875 342.29570312500005Q1208.26128515625 339.8783203125 1210.628716796875 336.29570312500005Q1212.9961484375 332.71308593750007 1213.9440000000002 329.20000000000005L1172.4005429687502 223.78261718750002H1207.3480039062501L1223.0351132812502 270.05234375000003Q1224.2177304687502 273.23496093750003 1225.6633847656253 278.32626953125003Q1227.1090390625002 283.41757812500003 1228.6546933593752 288.754541015625Q1230.2003476562502 294.09150390625007 1231.2003476562502 298.27412109375007H1232.4177304687503Q1233.2177304687502 295.38281250000006 1234.1633847656253 291.6915039062501Q1235.1090390625002 288.00019531250007 1236.1546933593752 284.0545410156251Q1237.2003476562502 280.10888671875006 1238.2916562500002 276.52626953125Q1239.3829648437502 272.94365234375005 1240.0742734375 270.25234375L1253.5743710937502 223.78261718750002H1286.2001523437502L1249.69585546875 324.99560546875006Q1246.3697812500002 334.15644531250007 1242.2350156250002 342.136865234375Q1238.1002500000002 350.11728515625003 1232.5481015625 356.080322265625Q1226.9959531250001 362.043359375 1219.3177304687501 365.34335937500003Q1211.6395078125001 368.64335937500005 1201.2265195312502 368.64335937500005Z" fill="#171320"/>
</svg>